<?xml version="1.0" encoding="iso-8859-1"?>
<!-- Generator: Adobe Illustrator 19.0.0, SVG Export Plug-In . SVG Version: 6.00 Build 0)  -->
<svg version="1.1" id="Layer_1" xmlns="http://www.w3.org/2000/svg" xmlns:xlink="http://www.w3.org/1999/xlink" x="0px" y="0px"
	 viewBox="0 0 512.001 512.001" style="enable-background:new 0 0 512.001 512.001;" xml:space="preserve">
<path style="fill:#6D6459;" d="M400.605,196.913h-43.249c-9.963,0-18.039,8.077-18.039,18.039s8.077,18.039,18.039,18.039h43.249
	c12.959,0,23.203,10.571,23.203,23.531V358.15c0,12.959-10.245,23.967-23.203,23.967h-48.928c-9.963,0-18.039,8.077-18.039,18.039
	s8.077,18.039,18.039,18.039h48.928c32.853,0,59.282-27.193,59.282-60.046V256.522C459.889,223.669,433.458,196.913,400.605,196.913
	z"/>
<path style="fill:#C36F47;" d="M360.276,115.411c-9.963,0-17.936,7.939-17.936,17.901l0.103-0.138H224.998H107.52v0.138
	c0-9.963-8.077-17.97-18.039-17.97s-18.039,8.145-18.039,18.109v330.723c0,26.238,21.733,47.827,47.97,47.827h105.364h106.163
	c26.238,0,47.17-21.589,47.17-47.827V133.45C378.11,123.488,370.239,115.411,360.276,115.411z"/>
<path style="fill:#E27F52;" d="M224.997,133.174H107.52v0.138c0-9.963-8.077-17.97-18.039-17.97s-18.039,8.145-18.039,18.109
	v330.723c0,26.238,21.733,47.827,47.97,47.827h105.364L224.997,133.174z"/>
<path style="fill:#CFC859;" d="M342.443,133.174h-0.096c0,0.047-0.007,0.091-0.007,0.138L342.443,133.174z"/>
<path style="fill:#B7A982;" d="M224.997,454.291c-9.963,0-18.039-8.077-18.039-18.039V303.205c0-9.963,8.077-18.039,18.039-18.039
	c9.963,0,18.039,8.077,18.039,18.039v133.046C243.036,446.214,234.96,454.291,224.997,454.291z"/>
<g>
	<path style="fill:#CAB98E;" d="M224.997,454.291c-9.963,0-18.039-8.077-18.039-18.039V303.205c0-9.963,8.077-18.039,18.039-18.039
		V454.291z"/>
	<path style="fill:#CAB98E;" d="M156.447,454.291c-9.963,0-18.039-8.077-18.039-18.039V288.704c0-9.963,8.077-18.039,18.039-18.039
		s18.039,8.077,18.039,18.039v147.547C174.487,446.214,166.41,454.291,156.447,454.291z"/>
</g>
<path style="fill:#B7A982;" d="M289.939,454.291c-9.963,0-18.039-8.077-18.039-18.039V288.704c0-9.963,8.077-18.039,18.039-18.039
	c9.963,0,18.039,8.077,18.039,18.039v147.547C307.978,446.214,299.901,454.291,289.939,454.291z"/>
<path style="fill:#D8D6CE;" d="M312.423,35.06c-12.741,0-25.159,2.859-36.426,8.257C258.431,16.725,228.387,0,195.499,0
	c-38.188,0-72.488,22.715-87.89,56.731c-31.221,3.78-55.495,30.443-55.495,62.669c0,16.158,6.111,31.814,17.208,43.578
	c0.657,0.696,1.376,1.329,2.119,1.928v18.271H172.5c2.245,2.697,4.689,5.239,7.331,7.581c16.722,14.83,38.316,22.933,60.452,22.933
	c3.306,0,6.626-0.18,9.942-0.547c22.881-2.527,43.31-13.581,57.936-29.967h69.948v-15.719c3.826-1.81,7.05-4.88,9.065-8.732
	c6.272-11.988,9.587-25.629,9.587-39.186C396.763,73.033,358.928,35.06,312.423,35.06z"/>
<path style="fill:#E5E3DC;" d="M224.997,4.628C215.63,1.613,205.702,0,195.499,0c-38.188,0-72.488,22.715-87.89,56.731
	c-31.221,3.78-55.495,30.443-55.495,62.669c0,16.158,6.111,31.814,17.208,43.578c0.657,0.696,1.376,1.329,2.119,1.928v18.271H172.5
	c2.245,2.697,4.689,5.239,7.331,7.581c12.838,11.384,28.548,18.791,45.168,21.62L224.997,4.628z"/>
<g>
</g>
<g>
</g>
<g>
</g>
<g>
</g>
<g>
</g>
<g>
</g>
<g>
</g>
<g>
</g>
<g>
</g>
<g>
</g>
<g>
</g>
<g>
</g>
<g>
</g>
<g>
</g>
<g>
</g>
</svg>
